<svg width="24" height="24" viewBox="0 0 24 24" fill="none" xmlns="http://www.w3.org/2000/svg">
<path d="M4.96846 12.2582C4.86549 12.1628 4.77486 12.076 4.69734 12C4.77486 11.924 4.86549 11.8372 4.96846 11.7418C5.36001 11.3791 5.92722 10.895 6.62732 10.4114C8.03703 9.43765 9.93638 8.5 12 8.5C14.0636 8.5 15.963 9.43765 17.3727 10.4114C18.0728 10.895 18.64 11.3791 19.0315 11.7418C19.1345 11.8372 19.2251 11.924 19.3027 12C19.2251 12.076 19.1345 12.1628 19.0315 12.2582C18.64 12.6209 18.0728 13.105 17.3727 13.5886C15.963 14.5624 14.0636 15.5 12 15.5C9.93638 15.5 8.03703 14.5624 6.62732 13.5886C5.92722 13.105 5.36001 12.6209 4.96846 12.2582Z" stroke="#636363"/>
<circle cx="12" cy="12" r="2.5" stroke="#636363"/>
</svg>
